# xmcd
#
# Track frame offsets: 
#        182
#        16532
#        31155
#        43820
#        59990
#        72615
#        85817
#        99485
#        113125
#        127327
#
# Disc length: 1892 seconds
#
# Revision: 5
# Processed by: cddbd v1.5.2PL0 Copyright (c) Steve Scherf et al.
# Submitted via: ExactAudioCopy v0.99pb3
#
DISCID=8c07620a
DTITLE=Various Artist - The Complete Motown Anthology
DYEAR=1997
DGENRE=R&B
TTITLE0=The Temptations - Cloud Nine
TTITLE1=Marvin Gaye - I Heard It Through The Grapevine
TTITLE2=Bobby Taylor and The Vancouvers - Does Your Mama Know About Me
TTITLE3=Diana Ross and The Supremes - Someday We'll Be Together
TTITLE4=Stevie Wonder - Signed, Sealed, Delivered I'm Yours
TTITLE5=The Temptations - I Can't Get Next To You
TTITLE6=Gladys Knight and The Pips - The Nitty Gritty
TTITLE7=The Jackson 5 - I Want You Back
TTITLE8=The Spinners - It's A Shame
TTITLE9=The Undisputed Truth - Smiling Faces Sometimes
EXTD=
EXTT0=
EXTT1=
EXTT2=
EXTT3=
EXTT4=
EXTT5=
EXTT6=
EXTT7=
EXTT8=
EXTT9=
PLAYORDER=
